<svg width="45" height="45" viewBox="0 0 45 45" fill="none" xmlns="http://www.w3.org/2000/svg">
<path fill-rule="evenodd" clip-rule="evenodd" d="M44.4399 27.0601C42.8975 34.4814 37.8491 40.2763 31.3841 43.0745L37.7375 12.5064L7.16974 6.15306C12.3123 1.33865 19.6388 -0.982394 27.0601 0.560056C39.1772 3.07851 46.9584 14.943 44.4399 27.0601ZM21.282 44.8788C23.9081 45.025 26.4818 44.7037 28.9077 43.9777L31.6675 30.6993C33.5563 21.6115 27.7204 12.7131 18.6326 10.8243L5.35454 8.06456C3.72176 10.0004 2.40143 12.2332 1.48907 14.7004L26.475 19.8935L21.282 44.8788ZM19.0426 44.641C18.6755 44.5834 18.3078 44.5164 17.9399 44.4399C5.82285 41.9215 -1.95839 30.057 0.560061 17.9399C0.636481 17.5723 0.721507 17.2086 0.814885 16.849L7.37002 18.2115C16.4578 20.1003 22.2938 28.9986 20.4049 38.0865L19.0426 44.641Z" fill="#5329FF"/>
</svg>
