<svg width="20" height="20" viewBox="0 0 20 20" fill="none" xmlns="http://www.w3.org/2000/svg">
<path fill-rule="evenodd" clip-rule="evenodd" d="M13.6757 2.30718L13.6766 2.93187C15.9721 3.11178 17.4885 4.67599 17.4909 7.07479L17.5 14.0963C17.5033 16.7116 15.8602 18.3208 13.2265 18.325L6.79324 18.3333C4.176 18.3367 2.51235 16.6891 2.50906 14.0663L2.50001 7.12727C2.49672 4.71264 3.95961 3.15259 6.25515 2.94186L6.25433 2.31718C6.2535 1.95069 6.52502 1.675 6.88704 1.675C7.24906 1.67416 7.52057 1.94903 7.5214 2.31551L7.52222 2.89855L12.4095 2.89189L12.4087 2.30885C12.4078 1.94236 12.6794 1.6675 13.0414 1.66667C13.3952 1.66584 13.6749 1.9407 13.6757 2.30718ZM3.7679 7.38464L16.2247 7.36798V7.07646C16.1893 5.28569 15.2908 4.34616 13.6782 4.20623L13.679 4.84757C13.679 5.20573 13.4001 5.48975 13.0463 5.48975C12.6843 5.49059 12.412 5.20739 12.412 4.84924L12.4111 4.17458L7.52386 4.18124L7.52469 4.85507C7.52469 5.21406 7.25399 5.49725 6.89197 5.49725C6.52995 5.49808 6.25762 5.21572 6.25762 4.85674L6.25679 4.21539C4.65239 4.37614 3.76461 5.31901 3.76708 7.1256L3.7679 7.38464ZM12.6999 11.1702V11.1794C12.7082 11.5625 13.0208 11.8532 13.4001 11.8449C13.7704 11.8357 14.0657 11.5184 14.0575 11.1353C14.0402 10.7688 13.7432 10.4698 13.3738 10.4706C12.9953 10.4789 12.6991 10.7871 12.6999 11.1702ZM13.3795 14.91C13.0011 14.9017 12.6958 14.586 12.695 14.2029C12.6868 13.8197 12.9904 13.5024 13.3688 13.4932H13.3771C13.7638 13.4932 14.0773 13.8089 14.0773 14.2004C14.0781 14.5919 13.7654 14.9092 13.3795 14.91ZM9.31011 11.1836C9.32656 11.5667 9.64004 11.8657 10.0185 11.8491C10.3888 11.8316 10.6841 11.5151 10.6677 11.1319C10.6586 10.7571 10.3542 10.4656 9.98396 10.4664C9.60548 10.4831 9.30928 10.8004 9.31011 11.1836ZM10.0218 14.8726C9.64333 14.8892 9.33068 14.5902 9.3134 14.2071C9.3134 13.8239 9.60877 13.5074 9.98725 13.4899C10.3575 13.4891 10.6627 13.7806 10.671 14.1546C10.6883 14.5386 10.3921 14.8551 10.0218 14.8726ZM5.92028 11.2127C5.93673 11.5959 6.25021 11.8957 6.62869 11.8782C6.99894 11.8616 7.29431 11.5442 7.27703 11.1611C7.26881 10.7863 6.96438 10.4947 6.59331 10.4956C6.21483 10.5122 5.91946 10.8296 5.92028 11.2127ZM6.63198 14.8767C6.2535 14.8942 5.94085 14.5944 5.92357 14.2112C5.92275 13.8281 6.21895 13.5107 6.59742 13.4941C6.96767 13.4932 7.27292 13.7848 7.28115 14.1596C7.29842 14.5427 7.00305 14.8601 6.63198 14.8767Z" fill="#5329FF"/>
</svg>
