<svg width="14" height="14" viewBox="0 0 14 14" fill="none" xmlns="http://www.w3.org/2000/svg">
<path fill-rule="evenodd" clip-rule="evenodd" d="M4.47407 1.1662H9.53157C11.5091 1.1662 12.8332 2.55453 12.8332 4.61953V9.38595C12.8332 11.4451 11.5091 12.8329 9.53157 12.8329H4.47407C2.49656 12.8329 1.16656 11.4451 1.16656 9.38595V4.61953C1.16656 2.55453 2.49656 1.1662 4.47407 1.1662ZM8.75573 8.74953C8.95407 8.55178 8.95407 8.23095 8.75573 8.03261L7.7174 6.99428L8.75573 5.95537C8.95407 5.75762 8.95407 5.43095 8.75573 5.23262C8.5574 5.0337 8.23657 5.0337 8.0324 5.23262L6.9999 6.27037L5.96157 5.23262C5.7574 5.0337 5.43656 5.0337 5.23823 5.23262C5.0399 5.43095 5.0399 5.75762 5.23823 5.95537L6.27657 6.99428L5.23823 8.02678C5.0399 8.23095 5.0399 8.55178 5.23823 8.74953C5.3374 8.8487 5.47156 8.90178 5.5999 8.90178C5.73407 8.90178 5.8624 8.8487 5.96157 8.74953L6.9999 7.71762L8.03823 8.74953C8.1374 8.85511 8.26573 8.90178 8.39406 8.90178C8.52823 8.90178 8.65657 8.8487 8.75573 8.74953Z" fill="#FF6056"/>
</svg>
