<svg width="22" height="26" viewBox="0 0 22 26" fill="none" xmlns="http://www.w3.org/2000/svg">
<path d="M1 11.0534C1.00829 8.37875 2.06981 5.81694 3.95103 3.93156C5.83225 2.04619 8.37907 0.991689 11.0312 1.00005C13.6834 1.00841 16.2236 2.07894 18.0931 3.97614C19.9626 5.87334 21.0082 8.4418 21 11.1165V11.2307C20.7099 14.8795 19.0974 18.2927 16.4704 20.8185C15.0652 22.2906 13.4959 23.5938 11.7937 24.7023C11.5736 24.8943 11.2923 25 11.0013 25C10.7102 25 10.4289 24.8943 10.2088 24.7023C7.67133 23.0367 5.44425 20.9338 3.62941 18.4899C2.01079 16.3584 1.09165 13.7708 1 11.0876L1 11.0534Z" stroke="#100937" stroke-opacity="0.3" stroke-width="1.5" stroke-miterlimit="10" stroke-linecap="round" stroke-linejoin="round"/>
<path d="M11.0006 14.4801C12.7707 14.4801 14.2057 13.033 14.2057 11.2478C14.2057 9.4627 12.7707 8.01556 11.0006 8.01556C9.23054 8.01556 7.79559 9.4627 7.79559 11.2478C7.79559 13.033 9.23054 14.4801 11.0006 14.4801Z" stroke="#100937" stroke-opacity="0.3" stroke-width="1.5" stroke-miterlimit="10" stroke-linecap="round" stroke-linejoin="round"/>
</svg>
