<svg width="19" height="22" viewBox="0 0 19 22" fill="none" xmlns="http://www.w3.org/2000/svg">
<path d="M14.1676 7.97555V5.64641C14.1519 4.348 13.6415 3.10809 12.7466 2.19463C11.8518 1.28116 10.6443 0.767508 9.38527 0.76466C8.12621 0.761813 6.91661 1.27 6.01788 2.17941C5.11916 3.08882 4.60347 4.32641 4.58228 5.62474L4.58228 7.97555" stroke="#100937" stroke-opacity="0.6" stroke-width="1.5" stroke-miterlimit="10" stroke-linecap="round" stroke-linejoin="round"/>
<path d="M13.39 20.7646H5.36002C4.30313 20.7646 3.28952 20.3316 2.54219 19.5609C1.79485 18.7901 1.375 17.7448 1.375 16.6548L1.375 12.0063C1.375 10.9163 1.79485 9.87092 2.54219 9.10017C3.28952 8.32942 4.30313 7.89642 5.36002 7.89642H13.39C13.9133 7.89642 14.4315 8.00273 14.915 8.20927C15.3985 8.41581 15.8378 8.71854 16.2078 9.10017C16.5779 9.48181 16.8714 9.93487 17.0717 10.4335C17.2719 10.9321 17.375 11.4666 17.375 12.0063V16.6548C17.375 17.1945 17.2719 17.7289 17.0717 18.2276C16.8714 18.7262 16.5779 19.1793 16.2078 19.5609C15.8378 19.9425 15.3985 20.2453 14.915 20.4518C14.4315 20.6583 13.9133 20.7646 13.39 20.7646V20.7646Z" stroke="#100937" stroke-opacity="0.6" stroke-width="1.5" stroke-miterlimit="10" stroke-linecap="round" stroke-linejoin="round"/>
<path d="M9.37549 13.127V15.5341" stroke="#100937" stroke-opacity="0.6" stroke-width="1.5" stroke-miterlimit="10" stroke-linecap="round" stroke-linejoin="round"/>
</svg>
