<svg width="20" height="20" viewBox="0 0 20 20" fill="none" xmlns="http://www.w3.org/2000/svg">
<path fill-rule="evenodd" clip-rule="evenodd" d="M7.43811 13.6583H11.9266C12.2648 13.6583 12.5454 13.375 12.5454 13.0333C12.5454 12.6917 12.2648 12.4167 11.9266 12.4167H7.43811C7.09982 12.4167 6.8193 12.6917 6.8193 13.0333C6.8193 13.375 7.09982 13.6583 7.43811 13.6583ZM10.2269 8.25H7.43811C7.09982 8.25 6.8193 8.53333 6.8193 8.875C6.8193 9.21666 7.09982 9.49166 7.43811 9.49166H10.2269C10.5652 9.49166 10.8457 9.21666 10.8457 8.875C10.8457 8.53333 10.5652 8.25 10.2269 8.25ZM16.115 7.52134C16.309 7.5191 16.5202 7.51666 16.712 7.51666C16.9183 7.51666 17.0833 7.68333 17.0833 7.89166V14.5917C17.0833 16.6583 15.4249 18.3333 13.3787 18.3333H6.81105C4.66583 18.3333 2.91666 16.575 2.91666 14.4083V5.425C2.91666 3.35833 4.58332 1.66666 6.63778 1.66666H11.0437C11.2582 1.66666 11.4233 1.84166 11.4233 2.05V4.73333C11.4233 6.25833 12.6691 7.50833 14.179 7.51666C14.5317 7.51666 14.8426 7.5193 15.1147 7.52161C15.3264 7.5234 15.5146 7.525 15.6807 7.525C15.7981 7.525 15.9504 7.52324 16.115 7.52134ZM16.3426 6.305C15.6643 6.3075 14.8648 6.305 14.2898 6.29916C13.3772 6.29916 12.6256 5.54 12.6256 4.61833V2.42166C12.6256 2.0625 13.0571 1.88416 13.3038 2.14333C13.7508 2.61282 14.3654 3.25839 14.9769 3.90079C15.5855 4.54002 16.191 5.17613 16.6256 5.6325C16.8665 5.885 16.6899 6.30416 16.3426 6.305Z" fill="#5329FF"/>
</svg>
