<svg width="14" height="14" viewBox="0 0 14 14" fill="none" xmlns="http://www.w3.org/2000/svg">
<path d="M12.8333 6.16667H7.83331V1.16667C7.83331 0.945655 7.74551 0.733694 7.58923 0.577414C7.43295 0.421133 7.22099 0.333336 6.99998 0.333336C6.77897 0.333336 6.567 0.421133 6.41072 0.577414C6.25444 0.733694 6.16665 0.945655 6.16665 1.16667V6.16667H1.16665C0.945633 6.16667 0.733671 6.25447 0.577391 6.41075C0.421111 6.56703 0.333313 6.77899 0.333313 7C0.333313 7.22102 0.421111 7.43298 0.577391 7.58926C0.733671 7.74554 0.945633 7.83333 1.16665 7.83333H6.16665V12.8333C6.16665 13.0543 6.25444 13.2663 6.41072 13.4226C6.567 13.5789 6.77897 13.6667 6.99998 13.6667C7.22099 13.6667 7.43295 13.5789 7.58923 13.4226C7.74551 13.2663 7.83331 13.0543 7.83331 12.8333V7.83333H12.8333C13.0543 7.83333 13.2663 7.74554 13.4226 7.58926C13.5788 7.43298 13.6666 7.22102 13.6666 7C13.6666 6.77899 13.5788 6.56703 13.4226 6.41075C13.2663 6.25447 13.0543 6.16667 12.8333 6.16667Z" fill="white"/>
</svg>
