<svg width="18" height="22" viewBox="0 0 18 22" fill="none" xmlns="http://www.w3.org/2000/svg">
<path d="M9.0332 10.7219C11.8202 10.7219 14.0796 8.4964 14.0796 5.75109C14.0796 3.00578 11.8202 0.780273 9.0332 0.780273C6.24616 0.780273 3.98682 3.00578 3.98682 5.75109C3.98682 8.4964 6.24616 10.7219 9.0332 10.7219Z" stroke="#100937" stroke-opacity="0.6" stroke-width="1.5" stroke-miterlimit="10" stroke-linecap="round" stroke-linejoin="round"/>
<path d="M1.02858 17.6351C1.02736 17.2857 1.10682 16.9406 1.26094 16.6259C1.61171 16.1573 2.05747 15.7655 2.56999 15.4754C3.0825 15.1852 3.65059 15.0031 4.23828 14.9406C5.05403 14.7703 5.88095 14.657 6.71289 14.6014C8.25369 14.4681 9.80339 14.4681 11.3442 14.6014C12.1762 14.659 13.003 14.7737 13.8188 14.9447C14.95 15.1736 16.3135 15.6303 16.7961 16.6301C16.9492 16.947 17.0286 17.2935 17.0286 17.6444C17.0286 17.9954 16.9492 18.3419 16.7961 18.6588C16.3124 19.6586 14.95 20.1153 13.8188 20.3348C13.0041 20.5135 12.1769 20.6314 11.3442 20.6875C10.0911 20.7903 8.83234 20.8077 7.57684 20.7395C7.28869 20.7489 7.00031 20.7298 6.71606 20.6823C5.88642 20.6269 5.06231 20.509 4.25095 20.3296C3.10712 20.1153 1.75417 19.6544 1.26094 18.6588C1.10686 18.3389 1.02746 17.9891 1.02858 17.6351V17.6351Z" stroke="#100937" stroke-opacity="0.6" stroke-width="1.5" stroke-miterlimit="10" stroke-linecap="round" stroke-linejoin="round"/>
</svg>
