<svg width="12" height="12" viewBox="0 0 12 12" fill="none" xmlns="http://www.w3.org/2000/svg">
<path fill-rule="evenodd" clip-rule="evenodd" d="M10.9013 6.92172C11.1099 7.03255 11.2709 7.20755 11.3842 7.38255C11.6047 7.74422 11.5869 8.18755 11.3722 8.57838L10.9549 9.27838C10.7344 9.65172 10.323 9.88505 9.89977 9.88505C9.69112 9.88505 9.45862 9.82672 9.26786 9.71005C9.11286 9.61088 8.93402 9.57588 8.74325 9.57588C8.15307 9.57588 7.65828 10.0601 7.64039 10.6376C7.64039 11.3084 7.09194 11.8334 6.40638 11.8334H5.59562C4.9041 11.8334 4.35565 11.3084 4.35565 10.6376C4.34373 10.0601 3.84893 9.57588 3.25875 9.57588C3.06202 9.57588 2.88318 9.61088 2.73414 9.71005C2.54338 9.82672 2.30492 9.88505 2.10223 9.88505C1.67301 9.88505 1.26167 9.65172 1.0411 9.27838L0.629764 8.57838C0.409191 8.19922 0.397268 7.74422 0.617841 7.38255C0.713223 7.20755 0.892066 7.03255 1.09475 6.92172C1.26167 6.84005 1.36898 6.70588 1.47032 6.54838C1.76839 6.04672 1.58955 5.38755 1.08283 5.09005C0.492651 4.75755 0.301886 4.01672 0.641686 3.43922L1.0411 2.75088C1.38686 2.17338 2.12608 1.96922 2.72222 2.30755C3.24086 2.58755 3.91451 2.40088 4.21854 1.90505C4.31392 1.74172 4.36757 1.56672 4.35565 1.39172C4.34373 1.16422 4.4093 0.948384 4.52257 0.773384C4.74314 0.411717 5.14256 0.178384 5.57774 0.166718H6.4183C6.85945 0.166718 7.25886 0.411717 7.47943 0.773384C7.58674 0.948384 7.65828 1.16422 7.64039 1.39172C7.62847 1.56672 7.68212 1.74172 7.7775 1.90505C8.08154 2.40088 8.75518 2.58755 9.27978 2.30755C9.86996 1.96922 10.6151 2.17338 10.9549 2.75088L11.3544 3.43922C11.7001 4.01672 11.5094 4.75755 10.9132 5.09005C10.4065 5.38755 10.2276 6.04672 10.5317 6.54838C10.6271 6.70588 10.7344 6.84005 10.9013 6.92172ZM4.31392 6.00588C4.31392 6.92172 5.07102 7.65088 6.00696 7.65088C6.9429 7.65088 7.68212 6.92172 7.68212 6.00588C7.68212 5.09005 6.9429 4.35505 6.00696 4.35505C5.07102 4.35505 4.31392 5.09005 4.31392 6.00588Z" fill="#FFCE93"/>
</svg>
