<svg width="20" height="20" viewBox="0 0 20 20" fill="none" xmlns="http://www.w3.org/2000/svg">
<path d="M19 17.5C19 16.6716 18.3284 16 17.5 16C16.6716 16 16 16.6716 16 17.5C16 18.3284 16.6716 19 17.5 19C18.3284 19 19 18.3284 19 17.5Z" stroke="#100937" stroke-opacity="0.3" stroke-width="1.5"/>
<path d="M11.5 17.5C11.5 16.6716 10.8284 16 10 16C9.17157 16 8.5 16.6716 8.5 17.5C8.5 18.3284 9.17157 19 10 19C10.8284 19 11.5 18.3284 11.5 17.5Z" stroke="#100937" stroke-opacity="0.3" stroke-width="1.5"/>
<path d="M4 17.5C4 16.6716 3.32843 16 2.5 16C1.67157 16 1 16.6716 1 17.5C1 18.3284 1.67157 19 2.5 19C3.32843 19 4 18.3284 4 17.5Z" stroke="#100937" stroke-opacity="0.3" stroke-width="1.5"/>
<path d="M19 10C19 9.17157 18.3284 8.5 17.5 8.5C16.6716 8.5 16 9.17157 16 10C16 10.8284 16.6716 11.5 17.5 11.5C18.3284 11.5 19 10.8284 19 10Z" stroke="#100937" stroke-opacity="0.3" stroke-width="1.5"/>
<path d="M19 2.5C19 1.67157 18.3284 1 17.5 1C16.6716 1 16 1.67157 16 2.5C16 3.32843 16.6716 4 17.5 4C18.3284 4 19 3.32843 19 2.5Z" stroke="#100937" stroke-opacity="0.3" stroke-width="1.5"/>
<path d="M11.5 10C11.5 9.17157 10.8284 8.5 10 8.5C9.17157 8.5 8.5 9.17157 8.5 10C8.5 10.8284 9.17157 11.5 10 11.5C10.8284 11.5 11.5 10.8284 11.5 10Z" stroke="#100937" stroke-opacity="0.3" stroke-width="1.5"/>
<path d="M11.5 2.5C11.5 1.67157 10.8284 1 10 1C9.17157 1 8.5 1.67157 8.5 2.5C8.5 3.32843 9.17157 4 10 4C10.8284 4 11.5 3.32843 11.5 2.5Z" stroke="#100937" stroke-opacity="0.3" stroke-width="1.5"/>
<path d="M4 10C4 9.17157 3.32843 8.5 2.5 8.5C1.67157 8.5 1 9.17157 1 10C1 10.8284 1.67157 11.5 2.5 11.5C3.32843 11.5 4 10.8284 4 10Z" stroke="#100937" stroke-opacity="0.3" stroke-width="1.5"/>
<path d="M4 2.5C4 1.67157 3.32843 1 2.5 1C1.67157 1 1 1.67157 1 2.5C1 3.32843 1.67157 4 2.5 4C3.32843 4 4 3.32843 4 2.5Z" stroke="#100937" stroke-opacity="0.3" stroke-width="1.5"/>
</svg>
