<svg width="14" height="14" viewBox="0 0 14 14" fill="none" xmlns="http://www.w3.org/2000/svg">
<path fill-rule="evenodd" clip-rule="evenodd" d="M11.9013 7.92172C12.1099 8.03255 12.2709 8.20755 12.3842 8.38255C12.6047 8.74422 12.5869 9.18755 12.3722 9.57838L11.9549 10.2784C11.7344 10.6517 11.323 10.8851 10.8998 10.8851C10.6911 10.8851 10.4586 10.8267 10.2679 10.7101C10.1129 10.6109 9.93402 10.5759 9.74325 10.5759C9.15307 10.5759 8.65828 11.0601 8.64039 11.6376C8.64039 12.3084 8.09194 12.8334 7.40638 12.8334H6.59562C5.9041 12.8334 5.35565 12.3084 5.35565 11.6376C5.34373 11.0601 4.84893 10.5759 4.25875 10.5759C4.06202 10.5759 3.88318 10.6109 3.73414 10.7101C3.54338 10.8267 3.30492 10.8851 3.10223 10.8851C2.67301 10.8851 2.26167 10.6517 2.0411 10.2784L1.62976 9.57838C1.40919 9.19922 1.39727 8.74422 1.61784 8.38255C1.71322 8.20755 1.89207 8.03255 2.09475 7.92172C2.26167 7.84005 2.36898 7.70588 2.47032 7.54838C2.76839 7.04672 2.58955 6.38755 2.08283 6.09005C1.49265 5.75755 1.30189 5.01672 1.64169 4.43922L2.0411 3.75088C2.38686 3.17338 3.12608 2.96922 3.72222 3.30755C4.24086 3.58755 4.91451 3.40088 5.21854 2.90505C5.31392 2.74172 5.36757 2.56672 5.35565 2.39172C5.34373 2.16422 5.4093 1.94838 5.52257 1.77338C5.74314 1.41172 6.14256 1.17838 6.57774 1.16672H7.4183C7.85945 1.16672 8.25886 1.41172 8.47943 1.77338C8.58674 1.94838 8.65828 2.16422 8.64039 2.39172C8.62847 2.56672 8.68212 2.74172 8.7775 2.90505C9.08154 3.40088 9.75518 3.58755 10.2798 3.30755C10.87 2.96922 11.6151 3.17338 11.9549 3.75088L12.3544 4.43922C12.7001 5.01672 12.5094 5.75755 11.9132 6.09005C11.4065 6.38755 11.2276 7.04672 11.5317 7.54838C11.6271 7.70588 11.7344 7.84005 11.9013 7.92172ZM5.31392 7.00588C5.31392 7.92172 6.07102 8.65088 7.00696 8.65088C7.9429 8.65088 8.68212 7.92172 8.68212 7.00588C8.68212 6.09005 7.9429 5.35505 7.00696 5.35505C6.07102 5.35505 5.31392 6.09005 5.31392 7.00588Z" fill="#FFCE93"/>
</svg>
