<svg width="14" height="14" viewBox="0 0 14 14" fill="none" xmlns="http://www.w3.org/2000/svg">
<path fill-rule="evenodd" clip-rule="evenodd" d="M4.47425 1.16661H9.53175C11.5092 1.16661 12.8334 2.55494 12.8334 4.61994V9.38636C12.8334 11.4449 11.5092 12.8333 9.53175 12.8333H4.47425C2.49675 12.8333 1.16675 11.4449 1.16675 9.38636V4.61994C1.16675 2.55494 2.49675 1.16661 4.47425 1.16661ZM6.66758 8.74411L9.43841 5.97328C9.63675 5.77494 9.63675 5.45411 9.43841 5.24994C9.24008 5.05161 8.91341 5.05161 8.71508 5.24994L6.30591 7.65911L5.28508 6.63828C5.08675 6.43994 4.76008 6.43994 4.56175 6.63828C4.36341 6.83661 4.36341 7.15744 4.56175 7.36161L5.95008 8.74411C6.04925 8.84328 6.17758 8.88994 6.30591 8.88994C6.44008 8.88994 6.56841 8.84328 6.66758 8.74411Z" fill="#61C877"/>
</svg>
